<svg width="30" height="29" viewBox="0 0 30 29" fill="none" xmlns="http://www.w3.org/2000/svg">
<rect x="1.08984" y="0.919922" width="27.59" height="27.59" rx="2.36" stroke="#7C7C7C"/>
<path d="M14.8921 11.7999C13.2773 11.7999 11.9748 13.1024 11.9748 14.7172C11.9748 16.3321 13.2773 17.6346 14.8921 17.6346C16.507 17.6346 17.8095 16.3321 17.8095 14.7172C17.8095 13.1024 16.507 11.7999 14.8921 11.7999ZM14.8921 16.6139C13.8486 16.6139 12.9955 15.7633 12.9955 14.7172C12.9955 13.6711 13.846 12.8206 14.8921 12.8206C15.9382 12.8206 16.7888 13.6711 16.7888 14.7172C16.7888 15.7633 15.9357 16.6139 14.8921 16.6139ZM18.6093 11.6805C18.6093 12.0588 18.3046 12.361 17.9289 12.361C17.5505 12.361 17.2484 12.0563 17.2484 11.6805C17.2484 11.3047 17.5531 11 17.9289 11C18.3046 11 18.6093 11.3047 18.6093 11.6805ZM20.5416 12.3711C20.4984 11.4596 20.2902 10.6522 19.6224 9.98696C18.9572 9.32173 18.1498 9.11353 17.2382 9.06782C16.2988 9.0145 13.483 9.0145 12.5435 9.06782C11.6345 9.11099 10.8271 9.31919 10.1593 9.98442C9.49155 10.6497 9.28589 11.4571 9.24019 12.3686C9.18687 13.3081 9.18687 16.1239 9.24019 17.0633C9.28335 17.9749 9.49155 18.7823 10.1593 19.4475C10.8271 20.1127 11.632 20.3209 12.5435 20.3666C13.483 20.42 16.2988 20.42 17.2382 20.3666C18.1498 20.3235 18.9572 20.1153 19.6224 19.4475C20.2876 18.7823 20.4958 17.9749 20.5416 17.0633C20.5949 16.1239 20.5949 13.3106 20.5416 12.3711ZM19.3279 18.0713C19.1298 18.569 18.7464 18.9524 18.2462 19.153C17.4972 19.45 15.7199 19.3815 14.8921 19.3815C14.0644 19.3815 12.2845 19.4475 11.538 19.153C11.0404 18.9549 10.657 18.5715 10.4564 18.0713C10.1593 17.3223 10.2279 15.545 10.2279 14.7172C10.2279 13.8895 10.1619 12.1096 10.4564 11.3631C10.6544 10.8655 11.0378 10.4821 11.538 10.2815C12.2871 9.98442 14.0644 10.053 14.8921 10.053C15.7199 10.053 17.4998 9.98696 18.2462 10.2815C18.7439 10.4795 19.1273 10.8629 19.3279 11.3631C19.625 12.1122 19.5564 13.8895 19.5564 14.7172C19.5564 15.545 19.625 17.3249 19.3279 18.0713Z" fill="#8D8D8D"/>
</svg>
