<svg width="63" height="68" viewBox="0 0 63 68" fill="none" xmlns="http://www.w3.org/2000/svg">
<g filter="url(#filter0_d_208_31)">
<rect x="10.2305" y="0.380005" width="42" height="42" rx="3" fill="#8040FF" shape-rendering="crispEdges"/>
<path d="M33.8445 19.1691C35.9539 21.2784 35.9188 24.6534 33.8445 26.6925C33.8445 26.7277 33.8445 26.7277 33.8445 26.7277L31.4891 29.0831C29.4148 31.1573 26.0047 31.1573 23.9305 29.0831C21.8563 27.0089 21.8563 23.5988 23.9305 21.5245L25.2313 20.2238C25.5828 19.8722 26.1805 20.1183 26.1805 20.6105C26.2156 21.2081 26.3211 21.8409 26.532 22.4386C26.6023 22.6495 26.5672 22.8956 26.3914 23.0363L25.9344 23.4933C24.95 24.4777 24.9148 26.0948 25.8992 27.0792C26.8836 28.0988 28.5008 28.0988 29.4852 27.0792L31.8758 24.7238C32.8602 23.7394 32.8602 22.1573 31.8758 21.1378C31.7352 21.0323 31.5945 20.9269 31.4891 20.8566C31.3484 20.7511 31.243 20.6105 31.243 20.3995C31.243 20.048 31.3836 19.6613 31.6648 19.3448L32.4031 18.6066C32.6141 18.4308 32.8953 18.3956 33.1414 18.5714C33.3875 18.7472 33.6336 18.9581 33.8445 19.1691ZM38.8016 14.212C40.8758 16.2863 40.8758 19.6964 38.8016 21.7706L37.5008 23.0714C37.1492 23.423 36.5516 23.1769 36.5516 22.6847C36.5164 22.087 36.4109 21.4542 36.2 20.8566C36.1297 20.6456 36.1648 20.3995 36.3406 20.2589L36.7977 19.8019C37.782 18.8175 37.8172 17.2003 36.8328 16.2159C35.8484 15.1964 34.2313 15.1964 33.2469 16.2159L30.8563 18.5714C29.8719 19.5558 29.8719 21.1378 30.8563 22.1573C30.9969 22.2628 31.1375 22.3683 31.243 22.4386C31.3836 22.5441 31.4891 22.6847 31.4891 22.8956C31.4891 23.2472 31.3484 23.6339 31.0672 23.9503L30.3289 24.6886C30.118 24.8644 29.8367 24.8995 29.5906 24.7238C29.3445 24.548 29.0984 24.337 28.8875 24.1261C26.7781 22.0167 26.8133 18.6417 28.8875 16.6027C28.8875 16.5675 28.8875 16.5675 28.8875 16.5675L31.243 14.212C33.3172 12.1378 36.7273 12.1378 38.8016 14.212Z" fill="white"/>
<a href="https://www.figma.com/design/cyVjrv5Y5qINUKadamXnVG/Lucky-ticket?node-id=208-125">
<rect fill="black" fill-opacity="0" x="0.153126" y="-2.35" width="18" height="20.7"/>
</a>
</g>
<defs>
<filter id="filter0_d_208_31" x="0.230469" y="0.380005" width="62" height="67" filterUnits="userSpaceOnUse" color-interpolation-filters="sRGB">
<feFlood flood-opacity="0" result="BackgroundImageFix"/>
<feColorMatrix in="SourceAlpha" type="matrix" values="0 0 0 0 0 0 0 0 0 0 0 0 0 0 0 0 0 0 127 0" result="hardAlpha"/>
<feOffset dy="15"/>
<feGaussianBlur stdDeviation="5"/>
<feComposite in2="hardAlpha" operator="out"/>
<feColorMatrix type="matrix" values="0 0 0 0 0.239216 0 0 0 0 0.27451 0 0 0 0 0.309804 0 0 0 0.12 0"/>
<feBlend mode="normal" in2="BackgroundImageFix" result="effect1_dropShadow_208_31"/>
<feBlend mode="normal" in="SourceGraphic" in2="effect1_dropShadow_208_31" result="shape"/>
</filter>
</defs>
</svg>
