<svg width="51" height="54" viewBox="0 0 51 54" fill="none" xmlns="http://www.w3.org/2000/svg">
<path d="M37.2695 27.0723L20.082 16.623C18.5391 15.7637 16.5957 16.8672 16.5957 18.6738V38.9863C16.5957 40.7832 18.5293 41.8965 20.082 41.0371L37.2695 31.1738C38.8711 30.2852 38.8711 27.9707 37.2695 27.0723ZM50.1895 28.8301C50.1895 15.4512 39.3496 4.61133 25.9707 4.61133C12.5918 4.61133 1.75195 15.4512 1.75195 28.8301C1.75195 42.209 12.5918 53.0488 25.9707 53.0488C39.3496 53.0488 50.1895 42.209 50.1895 28.8301ZM6.43945 28.8301C6.43945 18.0391 15.1797 9.29883 25.9707 9.29883C36.7617 9.29883 45.502 18.0391 45.502 28.8301C45.502 39.6211 36.7617 48.3613 25.9707 48.3613C15.1797 48.3613 6.43945 39.6211 6.43945 28.8301Z" fill="#6EE49F"/>
</svg>
