<svg width="51" height="54" viewBox="0 0 51 54" fill="none" xmlns="http://www.w3.org/2000/svg">
<path d="M24.8468 28.3526C25.4544 28.995 26.444 28.995 27.0603 28.3526L36.5135 18.4394C39.2565 15.5575 39.1003 10.7832 36.0273 8.12692C33.3537 5.80922 29.3694 6.22588 26.9214 8.79533L25.9492 9.81095L24.9857 8.80401C22.5378 6.22588 18.5534 5.80922 15.8798 8.12692C12.8155 10.7832 12.6506 15.5575 15.3937 18.4394L24.8468 28.3526ZM50.0204 35.0887C48.9961 34.1599 47.3989 34.2207 46.3225 35.0887L38.3016 41.5037C37.3207 42.2936 36.0968 42.7189 34.8294 42.7189H24.5603C23.7964 42.7189 23.1714 42.0939 23.1714 41.33C23.1714 40.5662 23.7964 39.9412 24.5603 39.9412H31.3572C32.7374 39.9412 34.0221 38.995 34.2478 37.6321C34.5343 35.896 33.1975 34.3856 31.5048 34.3856H17.6159C15.2721 34.3856 13.0065 35.1929 11.1836 36.6686L7.14714 39.9412H2.33811C1.57422 39.9412 0.949219 40.5662 0.949219 41.33V49.6634C0.949219 50.4273 1.57422 51.0523 2.33811 51.0523H33.3103C34.569 51.0523 35.793 50.6269 36.7826 49.837L49.9076 39.3335C51.227 38.2832 51.3312 36.2693 50.0204 35.0887Z" fill="#6EE49F"/>
</svg>
