<svg width="51" height="51" viewBox="0 0 51 51" fill="none" xmlns="http://www.w3.org/2000/svg">
<g clip-path="url(#clip0_204_1095)">
<path d="M49.667 5.40137C49.2438 4.91309 48.7555 4.53874 48.2021 4.27832C47.6488 4.0179 47.0628 3.8877 46.4443 3.8877H39.9502V1.78809C39.9502 1.26725 39.7793 0.844074 39.4375 0.518555C39.0957 0.193035 38.6807 0.0302734 38.1924 0.0302734H27.6943C27.499 0.0302734 27.32 0.111652 27.1572 0.274414C26.9945 0.437176 26.9131 0.599934 26.9131 0.762695C26.9131 0.958008 26.9945 1.13704 27.1572 1.2998C27.32 1.46257 27.499 1.54395 27.6943 1.54395H38.1924C38.2575 1.54395 38.3145 1.56836 38.3633 1.61719C38.4121 1.66602 38.4365 1.72298 38.4365 1.78809C38.4365 2.60189 38.4365 3.39128 38.4365 4.15625C38.4365 4.92122 38.4365 5.46647 38.4365 5.79199H13.4365C13.4365 5.04329 13.4365 4.3597 13.4365 3.74121C13.4365 3.12272 13.4365 2.47168 13.4365 1.78809C13.4365 1.72298 13.4609 1.66602 13.5098 1.61719C13.5586 1.56836 13.6156 1.54395 13.6807 1.54395H24.1787C24.374 1.54395 24.5449 1.46257 24.6914 1.2998C24.8379 1.13704 24.9111 0.958008 24.9111 0.762695C24.9111 0.599934 24.8542 0.437176 24.7402 0.274414C24.6263 0.111652 24.488 0.0302734 24.3252 0.0302734C18.6937 0.0302734 15.5036 0.0302734 14.7549 0.0302734C14.0062 0.0302734 13.5993 0.0302734 13.5342 0.0302734C13.111 0.0953789 12.7611 0.290691 12.4844 0.616211C12.2077 0.94173 12.0693 1.33236 12.0693 1.78809V3.8877H5.5752C4.92415 3.8877 4.3138 4.0179 3.74414 4.27832C3.17448 4.53874 2.69434 4.91309 2.30371 5.40137C1.88053 5.8571 1.57129 6.37793 1.37598 6.96387C1.18066 7.5498 1.11556 8.15202 1.18066 8.77051C1.44108 10.7887 1.97005 12.693 2.76758 14.4834C3.5651 16.2738 4.61491 17.9502 5.91699 19.5127C7.18652 21.0101 8.63509 22.2878 10.2627 23.3457C11.8903 24.4036 13.6156 25.2093 15.4385 25.7627C16.1872 26.902 17.123 28.0332 18.2461 29.1562C19.3691 30.2793 20.5492 31.1501 21.7861 31.7686V40.8018L18.8076 45.2939H17.0498C16.4313 45.2939 15.8779 45.5137 15.3896 45.9531C14.9014 46.3926 14.6572 46.9541 14.6572 47.6377C14.6572 48.2887 14.8851 48.8503 15.3408 49.3223C15.7965 49.7943 16.3662 50.0303 17.0498 50.0303H34.9209C35.5394 50.0303 36.0928 49.8024 36.5811 49.3467C37.0693 48.891 37.3135 48.3213 37.3135 47.6377C37.3135 46.9541 37.0693 46.4089 36.5811 46.002C36.0928 45.5951 35.5394 45.3916 34.9209 45.3916H33.1631L30.1846 40.8994V39.2881C30.1846 39.0928 30.1032 38.9137 29.9404 38.751C29.7777 38.5882 29.6149 38.5068 29.4521 38.5068C29.2568 38.5068 29.0778 38.5719 28.915 38.7021C28.7523 38.8324 28.6709 39.0277 28.6709 39.2881V41.1436C28.6709 41.2738 28.7686 41.4854 28.9639 41.7783C29.1592 42.0713 29.9893 43.2757 31.4541 45.3916H20.5654C21.9326 43.2757 22.7301 42.0713 22.958 41.7783C23.1859 41.4854 23.2998 41.2738 23.2998 41.1436V32.4033C24.1787 32.6637 25.082 32.7939 26.0098 32.7939C26.9375 32.7939 27.8734 32.6637 28.8174 32.4033V35.9189C28.8174 36.0817 28.8906 36.2445 29.0371 36.4072C29.1836 36.57 29.3545 36.6514 29.5498 36.6514C29.7451 36.6514 29.916 36.57 30.0625 36.4072C30.209 36.2445 30.2822 36.0817 30.2822 35.9189V31.915C31.4867 31.3617 32.6667 30.499 33.8223 29.3271C34.9779 28.1553 35.93 27.016 36.6787 25.9092C38.5016 25.3558 40.2269 24.5339 41.8545 23.4434C43.4821 22.3529 44.9307 21.0915 46.2002 19.6592C47.5023 18.0967 48.5521 16.4121 49.3496 14.6055C50.1471 12.7988 50.6761 10.9027 50.9365 8.91699C50.9365 8.2334 50.8389 7.5905 50.6436 6.98828C50.4482 6.38607 50.1227 5.8571 49.667 5.40137ZM34.9209 46.7588C35.1813 46.7588 35.3929 46.8483 35.5557 47.0273C35.7184 47.2064 35.7998 47.4098 35.7998 47.6377C35.7998 47.8981 35.7184 48.1097 35.5557 48.2725C35.3929 48.4352 35.1813 48.5166 34.9209 48.5166H17.0498C16.7894 48.5166 16.5778 48.4352 16.415 48.2725C16.2523 48.1097 16.1709 47.8981 16.1709 47.6377C16.1709 47.4098 16.2523 47.2064 16.415 47.0273C16.5778 46.8483 16.7894 46.7588 17.0498 46.7588C17.1475 46.7588 18.1077 46.7588 19.9307 46.7588C21.7861 46.7588 23.8044 46.7588 25.9854 46.7588C28.1663 46.7588 30.1846 46.7588 32.04 46.7588C33.863 46.7588 34.8232 46.7588 34.9209 46.7588ZM39.9502 8.67285H45.9072C45.6143 10.7887 44.89 12.7744 43.7344 14.6299C42.5788 16.4854 41.1058 18.0316 39.3154 19.2686C39.7386 17.7712 39.9502 16.3796 39.9502 15.0938C39.9502 13.8079 39.9502 11.6676 39.9502 8.67285ZM12.0693 8.67285V14.3857C12.0693 15.1995 12.1263 16.0133 12.2402 16.8271C12.3542 17.6409 12.5088 18.4548 12.7041 19.2686C10.9463 18.0316 9.47331 16.4854 8.28516 14.6299C7.09701 12.7744 6.35645 10.7887 6.06348 8.67285H12.0693ZM2.69434 8.67285C2.56413 7.79395 2.79199 7.02897 3.37793 6.37793C3.96387 5.72689 4.69629 5.40137 5.5752 5.40137H12.0693C12.0693 5.88965 12.0693 6.23958 12.0693 6.45117C12.0693 6.66276 12.0693 6.89876 12.0693 7.15918H5.5752C5.24967 7.15918 4.98112 7.28939 4.76953 7.5498C4.55794 7.81022 4.45215 8.10319 4.45215 8.42871C4.58236 9.7959 4.8916 11.1143 5.37988 12.3838C5.86816 13.6533 6.49479 14.8415 7.25977 15.9482C8.02474 17.055 8.91178 18.0641 9.9209 18.9756C10.8975 19.9196 11.988 20.7334 13.1924 21.417C13.3226 21.8402 13.4772 22.2633 13.6562 22.6865C13.8353 23.1097 14.055 23.5166 14.3154 23.9072C12.7529 23.2562 11.3044 22.4098 9.96973 21.3682C8.63509 20.359 7.47135 19.1953 6.47852 17.877C5.48568 16.5586 4.64746 15.1182 3.96387 13.5557C3.31283 11.9932 2.88965 10.3656 2.69434 8.67285ZM31.1611 29.4248C29.5986 30.6618 27.8327 31.264 25.8633 31.2314C23.8939 31.1989 22.1605 30.5967 20.6631 29.4248C19.5563 28.5459 18.5472 27.5531 17.6357 26.4463C16.7568 25.3395 16 24.1432 15.3652 22.8574C14.7305 21.5716 14.2503 20.2126 13.9248 18.7803C13.5993 17.348 13.4365 15.8831 13.4365 14.3857V7.25684H38.4365C38.4365 7.38704 38.4365 8.55078 38.4365 10.748C38.4365 12.9453 38.4365 14.1579 38.4365 14.3857C38.4691 15.818 38.3226 17.2178 37.9971 18.585C37.7041 19.9847 37.2484 21.3275 36.6299 22.6133C36.0114 23.8991 35.2464 25.1117 34.335 26.251C33.4235 27.4229 32.3656 28.4808 31.1611 29.4248ZM49.3252 8.67285C49.0973 10.3656 48.6579 11.9932 48.0068 13.5557C47.3558 15.1182 46.5257 16.5586 45.5166 17.877C44.5075 19.1953 43.3356 20.359 42.001 21.3682C40.6989 22.4098 39.2666 23.2562 37.7041 23.9072C37.8669 23.484 38.0459 23.0527 38.2412 22.6133C38.4365 22.1738 38.6318 21.7751 38.8271 21.417C39.999 20.766 41.0895 19.9684 42.0986 19.0244C43.1077 18.113 43.9867 17.1038 44.7354 15.9971C45.4841 14.8903 46.1025 13.7021 46.5908 12.4326C47.0791 11.1631 47.4046 9.861 47.5674 8.52637C47.5674 8.33105 47.5511 8.16829 47.5186 8.03809C47.486 7.90788 47.4209 7.77767 47.3232 7.64746C47.193 7.51725 47.0547 7.4196 46.9082 7.35449C46.7617 7.28939 46.6071 7.25684 46.4443 7.25684H39.9502C39.9502 6.70345 39.9502 6.40234 39.9502 6.35352C39.9502 6.30469 39.9502 6.03613 39.9502 5.54785H46.2979C46.7536 5.54785 47.1605 5.63737 47.5186 5.81641C47.8766 5.99544 48.1859 6.23145 48.4463 6.52441C48.8044 6.78483 49.0566 7.09407 49.2031 7.45215C49.3496 7.81022 49.3903 8.21712 49.3252 8.67285ZM31.1611 15.167L28.0361 14.6787L26.6689 11.8955C26.6038 11.7653 26.498 11.6514 26.3516 11.5537C26.2051 11.4561 26.0667 11.4072 25.9365 11.4072C25.7412 11.4072 25.5785 11.4561 25.4482 11.5537C25.318 11.6514 25.2367 11.7653 25.2041 11.8955L23.7881 14.6787L20.6631 15.167C20.5003 15.167 20.3538 15.224 20.2236 15.3379C20.0934 15.4518 19.9958 15.6064 19.9307 15.8018C19.8656 15.9645 19.8574 16.1191 19.9062 16.2656C19.9551 16.4121 20.0446 16.5342 20.1748 16.6318L22.4209 18.7803L21.9326 21.9053C21.9326 22.1006 21.9652 22.2633 22.0303 22.3936C22.0954 22.5238 22.193 22.654 22.3232 22.7842C22.4209 22.9144 22.5592 22.9795 22.7383 22.9795C22.9173 22.9795 23.0719 22.9469 23.2021 22.8818L25.9365 21.417C27.4339 22.2308 28.2965 22.6784 28.5244 22.7598C28.7523 22.8411 28.9313 22.8818 29.0615 22.8818C29.3219 22.8818 29.5498 22.7842 29.7451 22.5889C29.9404 22.3936 30.0055 22.1657 29.9404 21.9053L29.4521 18.7803L31.6982 16.6318C31.7959 16.5342 31.8773 16.3958 31.9424 16.2168C32.0075 16.0378 32.0075 15.8994 31.9424 15.8018C31.8773 15.6716 31.7796 15.5495 31.6494 15.4355C31.5192 15.3216 31.3564 15.2321 31.1611 15.167ZM28.3291 18.0479C28.1989 18.1455 28.1175 18.2594 28.085 18.3896C28.0524 18.5199 28.0361 18.6501 28.0361 18.7803L28.4268 21.0264L26.4248 20.0498C26.3597 19.9847 26.2946 19.944 26.2295 19.9277C26.1644 19.9115 26.0993 19.9033 26.0342 19.9033C26.0016 19.9033 25.9528 19.9115 25.8877 19.9277C25.8226 19.944 25.7575 19.9847 25.6924 20.0498L23.6904 21.0264L24.0322 18.7803C24.0322 18.6501 24.0241 18.5117 24.0078 18.3652C23.9915 18.2188 23.9183 18.113 23.7881 18.0479L22.1768 16.3877L24.4229 16.0459C24.5531 16.0459 24.6751 15.9889 24.7891 15.875C24.903 15.7611 24.9925 15.639 25.0576 15.5088L26.0342 13.5068L27.0596 15.5088C27.1247 15.639 27.2142 15.7611 27.3281 15.875C27.4421 15.9889 27.5641 16.0459 27.6943 16.0459L29.9404 16.3877L28.3291 18.0479Z" fill="#6EE49F"/>
</g>
<defs>
<clipPath id="clip0_204_1095">
<rect width="49.61" height="50" fill="white" transform="matrix(1 0 0 -1 1.18066 50.0303)"/>
</clipPath>
</defs>
</svg>
