<svg width="63" height="68" viewBox="0 0 63 68" fill="none" xmlns="http://www.w3.org/2000/svg">
<g filter="url(#filter0_d_204_1010)">
<rect x="10.4102" y="0.310059" width="42" height="42" rx="3" fill="#8040FF" shape-rendering="crispEdges"/>
<path d="M41.5488 21.0679C41.6191 21.2085 41.6543 21.3843 41.6543 21.5952C41.6543 21.771 41.6191 21.9468 41.5488 22.0874C39.6504 25.814 35.8535 28.3101 31.5645 28.3101C27.2402 28.3101 23.4434 25.814 21.5449 22.0874C21.4746 21.9468 21.4395 21.771 21.4395 21.5601C21.4395 21.3843 21.4746 21.2085 21.5449 21.0679C23.4434 17.3413 27.2402 14.8101 31.5645 14.8101C35.8535 14.8101 39.6504 17.3413 41.5488 21.0679ZM31.5645 26.6226V26.6577C34.3418 26.6577 36.627 24.3726 36.627 21.5952V21.5601C36.627 18.7827 34.3418 16.4976 31.5645 16.4976C28.752 16.4976 26.502 18.7827 26.502 21.5601C26.502 24.3726 28.752 26.6226 31.5645 26.6226ZM31.5645 18.1851V18.2202C33.4277 18.2202 34.9395 19.6968 34.9395 21.5601C34.9395 23.4233 33.4277 24.9351 31.5645 24.9351C29.7012 24.9351 28.1895 23.4233 28.1895 21.5601C28.1895 21.2788 28.2246 20.9624 28.2949 20.6812C28.5762 20.8921 28.9277 20.9976 29.3145 20.9976C30.2285 20.9976 30.9668 20.2593 30.9668 19.3452C30.9668 18.9585 30.8613 18.6069 30.6504 18.3257C30.9316 18.2554 31.248 18.2202 31.5645 18.1851Z" fill="white"/>
</g>
<defs>
<filter id="filter0_d_204_1010" x="0.410156" y="0.310059" width="62" height="67" filterUnits="userSpaceOnUse" color-interpolation-filters="sRGB">
<feFlood flood-opacity="0" result="BackgroundImageFix"/>
<feColorMatrix in="SourceAlpha" type="matrix" values="0 0 0 0 0 0 0 0 0 0 0 0 0 0 0 0 0 0 127 0" result="hardAlpha"/>
<feOffset dy="15"/>
<feGaussianBlur stdDeviation="5"/>
<feComposite in2="hardAlpha" operator="out"/>
<feColorMatrix type="matrix" values="0 0 0 0 0.239216 0 0 0 0 0.27451 0 0 0 0 0.309804 0 0 0 0.12 0"/>
<feBlend mode="normal" in2="BackgroundImageFix" result="effect1_dropShadow_204_1010"/>
<feBlend mode="normal" in="SourceGraphic" in2="effect1_dropShadow_204_1010" result="shape"/>
</filter>
</defs>
</svg>
